<mxfile host="Electron" modified="2024-09-22T12:43:11.654Z" agent="Mozilla/5.0 (Macintosh; Intel Mac OS X 10_15_7) AppleWebKit/537.36 (KHTML, like Gecko) draw.io/24.6.4 Chrome/124.0.6367.207 Electron/30.0.6 Safari/537.36" etag="vSl6d-IgFafKXLj-cw6k" version="24.6.4" type="device">
  <diagram name="Page-1" id="9f46799a-70d6-7492-0946-bef42562c5a5">
    <mxGraphModel dx="478" dy="351" grid="1" gridSize="10" guides="1" tooltips="1" connect="1" arrows="1" fold="1" page="1" pageScale="1" pageWidth="1100" pageHeight="850" background="none" math="0" shadow="0">
      <root>
        <mxCell id="0" />
        <mxCell id="1" parent="0" />
        <mxCell id="QZrZ19TkT-167y9Cm3MV-5" value="src" style="swimlane;whiteSpace=wrap;html=1;" vertex="1" parent="1">
          <mxGeometry x="40" y="40" width="1040" height="340" as="geometry" />
        </mxCell>
        <mxCell id="QZrZ19TkT-167y9Cm3MV-7" value="course_selector.py" style="swimlane;whiteSpace=wrap;html=1;" vertex="1" parent="QZrZ19TkT-167y9Cm3MV-5">
          <mxGeometry x="30" y="40" width="200" height="280" as="geometry" />
        </mxCell>
        <mxCell id="QZrZ19TkT-167y9Cm3MV-8" value="Class_Name: CourseManager" style="text;html=1;align=center;verticalAlign=middle;whiteSpace=wrap;rounded=0;" vertex="1" parent="QZrZ19TkT-167y9Cm3MV-7">
          <mxGeometry x="10" y="40" width="180" height="20" as="geometry" />
        </mxCell>
        <mxCell id="QZrZ19TkT-167y9Cm3MV-9" value="__init__(self,session)" style="text;html=1;align=center;verticalAlign=middle;whiteSpace=wrap;rounded=0;" vertex="1" parent="QZrZ19TkT-167y9Cm3MV-7">
          <mxGeometry x="10" y="70" width="180" height="20" as="geometry" />
        </mxCell>
        <mxCell id="QZrZ19TkT-167y9Cm3MV-10" value="get_course_list(self)" style="text;html=1;align=center;verticalAlign=middle;whiteSpace=wrap;rounded=0;" vertex="1" parent="QZrZ19TkT-167y9Cm3MV-7">
          <mxGeometry x="10" y="90" width="180" height="20" as="geometry" />
        </mxCell>
      </root>
    </mxGraphModel>
  </diagram>
</mxfile>
